<?xml version="1.0" encoding="UTF-8" standalone="no"?>
<!DOCTYPE svg PUBLIC "-//W3C//DTD SVG 1.1//EN" "http://www.w3.org/Graphics/SVG/1.1/DTD/svg11.dtd">
<svg width="100%" height="100%" viewBox="0 0 512 512" version="1.1" xmlns="http://www.w3.org/2000/svg" xmlns:xlink="http://www.w3.org/1999/xlink" xml:space="preserve" xmlns:serif="http://www.serif.com/" style="fill-rule:evenodd;clip-rule:evenodd;stroke-linejoin:round;stroke-miterlimit:2;">
    <path d="M256,8C119.043,8 8,119.083 8,256C8,392.997 119.043,504 256,504C392.957,504 504,392.997 504,256C504,119.083 392.957,8 256,8ZM256,118C279.196,118 298,136.804 298,160C298,183.196 279.196,202 256,202C232.804,202 214,183.196 214,160C214,136.804 232.804,118 256,118ZM312,372C312,378.627 306.627,384 300,384L212,384C205.373,384 200,378.627 200,372L200,348C200,341.373 205.373,336 212,336L224,336L224,272L212,272C205.373,272 200,266.627 200,260L200,236C200,229.373 205.373,224 212,224L276,224C282.627,224 288,229.373 288,236L288,336L300,336C306.627,336 312,341.373 312,348L312,372Z" style="fill:rgb(255,248,238);fill-rule:nonzero;"/>
</svg>
