<?xml version="1.0" encoding="UTF-8" standalone="no"?>
<!DOCTYPE svg PUBLIC "-//W3C//DTD SVG 1.1//EN" "http://www.w3.org/Graphics/SVG/1.1/DTD/svg11.dtd">
<svg width="100%" height="100%" viewBox="0 0 320 512" version="1.1" xmlns="http://www.w3.org/2000/svg" xmlns:xlink="http://www.w3.org/1999/xlink" xml:space="preserve" xmlns:serif="http://www.serif.com/" style="fill-rule:evenodd;clip-rule:evenodd;stroke-linejoin:round;stroke-miterlimit:2;">
    <path d="M272,0L48,0C21.5,0 0,21.5 0,48L0,464C0,490.5 21.5,512 48,512L272,512C298.5,512 320,490.5 320,464L320,48C320,21.5 298.5,0 272,0ZM160,480C142.3,480 128,465.7 128,448C128,430.3 142.3,416 160,416C177.7,416 192,430.3 192,448C192,465.7 177.7,480 160,480ZM272,372C272,378.6 266.6,384 260,384L60,384C53.4,384 48,378.6 48,372L48,60C48,53.4 53.4,48 60,48L260,48C266.6,48 272,53.4 272,60L272,372Z" style="fill:rgb(62,54,106);fill-rule:nonzero;"/>
</svg>
